<svg xmlns="http://www.w3.org/2000/svg" viewBox="0 0 1920 1080" preserveAspectRatio="xMidYMid slice">
  <defs>
    <linearGradient id="night" x1="0" y1="0" x2="0" y2="1">
      <stop offset="0" stop-color="#01020a"/>
      <stop offset="0.58" stop-color="#04112b"/>
      <stop offset="1" stop-color="#061630"/>
    </linearGradient>
    <radialGradient id="glow" cx="50%" cy="48%" r="45%">
      <stop offset="0" stop-color="#72f4d7" stop-opacity="0.55"/>
      <stop offset="1" stop-color="#72f4d7" stop-opacity="0"/>
    </radialGradient>
    <filter id="soft" x="-20%" y="-20%" width="140%" height="140%">
      <feGaussianBlur stdDeviation="24"/>
    </filter>
  </defs>

  <rect width="1920" height="1080" fill="url(#night)"/>
  <rect width="1920" height="1080" fill="url(#glow)"/>

  <g filter="url(#soft)" opacity="0.85">
    <path d="M-120 560C220 380 520 700 850 560S1410 360 1980 520" fill="none" stroke="#73f5da" stroke-opacity="0.48" stroke-width="130" stroke-linecap="round"/>
    <path d="M-180 490C140 290 470 600 780 510s560-300 1320-260" fill="none" stroke="#58d8d6" stroke-opacity="0.34" stroke-width="95" stroke-linecap="round"/>
    <path d="M120 700C500 500 840 810 1180 690s420-210 680-180" fill="none" stroke="#5cf4c8" stroke-opacity="0.28" stroke-width="72" stroke-linecap="round"/>
  </g>

  <g fill="#041124" opacity="0.96">
    <path d="M0 770l180 60 130-74 132 70 126-66 128 54 146-90 152 108 94-76 104 64 120-88 124 102 88-44 96 48v284H0z"/>
    <path d="M0 802l180 58 130-72 132 72 126-62 128 58 146-88 152 108 94-74 104 64 120-90 124 102 88-42 96 50v254H0z" fill="#061832" opacity="0.6"/>
  </g>

  <path d="M0 930c230 22 480 10 730 0s458 16 694 2 360-6 496 8v140H0z" fill="#0a2a3d" opacity="0.54"/>
  <path d="M0 962c244 20 478 16 726 4s474 18 706 4 346 2 488 12v98H0z" fill="#0f3446" opacity="0.4"/>

  <g fill="#e5f7ff">
    <circle cx="140" cy="80" r="1" opacity="0.4"/>
    <circle cx="260" cy="150" r="1.2" opacity="0.5"/>
    <circle cx="430" cy="105" r="1" opacity="0.35"/>
    <circle cx="610" cy="132" r="1" opacity="0.45"/>
    <circle cx="760" cy="84" r="1" opacity="0.4"/>
    <circle cx="950" cy="140" r="1.1" opacity="0.52"/>
    <circle cx="1180" cy="112" r="1" opacity="0.44"/>
    <circle cx="1340" cy="70" r="1" opacity="0.3"/>
    <circle cx="1520" cy="128" r="1" opacity="0.42"/>
    <circle cx="1690" cy="96" r="1" opacity="0.38"/>
  </g>
</svg>
